<mxfile host="app.diagrams.net" modified="2024-05-18T06:37:06.139Z" agent="Mozilla/5.0 (Windows NT 10.0; Win64; x64) AppleWebKit/537.36 (KHTML, like Gecko) Chrome/123.0.0.0 Safari/537.36 OPR/109.0.0.0" version="24.4.4" etag="eBpvzp085cyujMrswall" type="github">
  <diagram name="Page-1" id="XS5_wPB4vtfXRTraGKoQ">
    <mxGraphModel>
      <root>
        <mxCell id="0" />
        <mxCell id="1" parent="0" />
      </root>
    </mxGraphModel>
  </diagram>
</mxfile>
